<svg width="2481" height="3508" xmlns="http://www.w3.org/2000/svg" clip-rule="evenodd">

 <g>
  <title>background</title>
  <rect fill="none" id="canvas_background" height="402" width="582" y="-1" x="-1"/>
 </g>
 <g>
  <title>Layer 1</title>
  <path id="svg_2" fill="none" stroke="#ffffff" stroke-width="12.5px" d="m1559.06,1599.97l-118.11,-177.165"/>
  <path id="svg_3" fill="none" stroke="#ffffff" stroke-width="33.33px" stroke-linejoin="bevel" d="m1251.97,253.508l8.343,889.013l15.279,1638.55l-15.279,-1638.55l121.578,-177.627l-121.578,177.627l-126.454,-177.729l126.454,177.729l9.992,1071.62l123.397,-165.354l-123.397,165.354l-121.202,-165.354l121.202,165.354"/>
  <path id="svg_4" fill="none" stroke="#ffffff" stroke-width="12.5px" d="m1559.06,655.083l0,346.091l0,-346.091l0,346.091l0,-346.091l0,2125.99"/>
  <path id="svg_5" fill="none" stroke="#ffffff" stroke-width="12.5px" d="m944.882,2214.14l0,-1960.63l0,1960.63z"/>
  <path id="svg_6" fill="none" stroke="#ffffff" stroke-width="33.33px" d="m1083.34,1425.68l-138.453,221.525l1,1133.86"/>
  <path id="svg_7" fill="none" stroke="#ffffff" stroke-width="12.5px" d="m944.882,665.345l-106.299,-163.805"/>
  <path id="svg_8" fill="none" stroke="#ffffff" stroke-width="33.33px" stroke-linejoin="bevel" d="m1559.06,253.508l0,401.575l129.921,-165.354"/>
  <path fill="#ffffff" id="svg_10" fill-rule="nonzero" stroke="#ffffff" stroke-width="6.25px" stroke-miterlimit="2" d="m812.041,3208.98l11.6,0c3.2,0 5.916,-0.376 8.15,-1.13c2.233,-0.753 4.016,-1.751 5.35,-2.994c1.333,-1.243 2.3,-2.712 2.9,-4.407c0.6,-1.695 0.9,-3.522 0.9,-5.481c0,-1.883 -0.3,-3.672 -0.9,-5.367c-0.6,-1.695 -1.567,-3.183 -2.9,-4.464c-1.334,-1.28 -3.117,-2.278 -5.35,-2.994c-2.234,-0.716 -4.95,-1.074 -8.15,-1.074l-11.6,0l0,27.911zm-7.2,-35.369l20.6,0c7.2,0 12.883,1.771 17.05,5.311c4.166,3.541 6.25,8.89 6.25,16.046c0,7.157 -2.084,12.525 -6.25,16.103c-4.167,3.578 -9.85,5.367 -17.05,5.367l-13.4,0l0,37.177l-7.2,0l0,-80.004z"/>
  <path fill="#ffffff" id="svg_11" fill-rule="nonzero" stroke="#ffffff" stroke-width="6.25px" stroke-miterlimit="2" d="m965.741,3186.83c-3.134,-5.198 -7.7,-7.797 -13.7,-7.797c-1.867,0 -3.7,0.283 -5.5,0.848c-1.8,0.565 -3.417,1.431 -4.85,2.599c-1.434,1.168 -2.584,2.674 -3.45,4.52c-0.867,1.846 -1.3,4.011 -1.3,6.497c0,3.616 0.9,6.423 2.7,8.419c1.8,1.996 4.033,3.635 6.7,4.915c2.666,1.281 5.583,2.43 8.75,3.447c3.166,1.017 6.083,2.373 8.75,4.068c2.666,1.695 4.9,3.936 6.7,6.723c1.8,2.788 2.7,6.592 2.7,11.413c0,3.616 -0.684,6.875 -2.05,9.775c-1.367,2.9 -3.167,5.33 -5.4,7.288c-2.234,1.959 -4.734,3.466 -7.5,4.52c-2.767,1.055 -5.55,1.582 -8.35,1.582c-4.334,0 -8.45,-0.922 -12.35,-2.768c-3.9,-1.846 -7.217,-4.878 -9.95,-9.097l6.5,-5.311c1.533,2.938 3.666,5.293 6.4,7.063c2.733,1.77 5.966,2.655 9.7,2.655c1.8,0 3.6,-0.32 5.4,-0.96c1.8,-0.64 3.416,-1.582 4.85,-2.825c1.433,-1.243 2.616,-2.769 3.55,-4.577c0.933,-1.808 1.4,-3.879 1.4,-6.215c0,-2.787 -0.517,-5.103 -1.55,-6.949c-1.034,-1.846 -2.4,-3.39 -4.1,-4.633c-1.7,-1.243 -3.634,-2.279 -5.8,-3.108c-2.167,-0.828 -4.4,-1.657 -6.7,-2.486c-2.3,-0.828 -4.534,-1.77 -6.7,-2.825c-2.167,-1.054 -4.1,-2.391 -5.8,-4.011c-1.7,-1.62 -3.067,-3.654 -4.1,-6.102c-1.034,-2.448 -1.55,-5.518 -1.55,-9.21c0,-3.842 0.65,-7.194 1.95,-10.057c1.3,-2.862 3.033,-5.235 5.2,-7.119c2.166,-1.883 4.616,-3.277 7.35,-4.181c2.733,-0.904 5.533,-1.356 8.4,-1.356c4,0 7.633,0.716 10.9,2.147c3.266,1.432 6.3,3.955 9.1,7.571l-6.3,5.537z"/>
  <path fill="#ffffff" id="svg_12" fill-rule="nonzero" stroke="#ffffff" stroke-width="6.25px" stroke-miterlimit="2" d="m1100.94,3180.39l-41.3,65.766l41.9,0l0,7.458l-51,0l0,-6.78l41.4,-65.766l-40.8,0l0,-7.458l49.8,0l0,6.78z"/>
  <path fill="#ffffff" id="svg_13" fill-rule="nonzero" stroke="#ffffff" stroke-width="6.25px" stroke-miterlimit="2" d="m1190.64,3246.16l37.9,0l0,7.458l-45.1,0l0,-80.004l43.9,0l0,7.458l-36.7,0l0,27.233l34.3,0l0,7.458l-34.3,0l0,30.397z"/>
  <path fill="#ffffff" id="svg_14" fill-rule="nonzero" stroke="#ffffff" stroke-width="6.25px" stroke-miterlimit="2" d="m1363.94,3241.41l0.2,0l0,-67.8l7.2,0l0,80.004l-9,0l-42.2,-68.478l-0.2,0l0,68.478l-7.2,0l0,-80.004l9,0l42.2,67.8z"/>
  <rect fill="#ffffff" id="svg_15" fill-rule="nonzero" stroke="#ffffff" stroke-width="6.25px" stroke-miterlimit="2" height="80.004" width="7.2" y="3173.61" x="1460.54"/>
  <path fill="#ffffff" id="svg_16" fill-rule="nonzero" stroke="#ffffff" stroke-width="6.25px" stroke-miterlimit="2" d="m1615.24,3240.96c-1.2,2.034 -2.684,3.955 -4.45,5.763c-1.767,1.808 -3.784,3.372 -6.05,4.69c-2.267,1.318 -4.717,2.354 -7.35,3.107c-2.634,0.754 -5.417,1.13 -8.35,1.13c-5.267,0 -10.15,-1.054 -14.65,-3.164c-4.5,-2.109 -8.4,-5.028 -11.7,-8.757c-3.3,-3.729 -5.884,-8.155 -7.75,-13.278c-1.867,-5.122 -2.8,-10.735 -2.8,-16.837c0,-6.102 0.933,-11.714 2.8,-16.837c1.866,-5.122 4.45,-9.548 7.75,-13.277c3.3,-3.729 7.2,-6.648 11.7,-8.758c4.5,-2.109 9.383,-3.164 14.65,-3.164c4.4,0 8.8,0.98 13.2,2.938c4.4,1.959 8.166,5.198 11.3,9.718l-6.3,5.311c-0.734,-1.28 -1.734,-2.561 -3,-3.842c-1.267,-1.28 -2.717,-2.41 -4.35,-3.39c-1.634,-0.979 -3.384,-1.77 -5.25,-2.373c-1.867,-0.602 -3.734,-0.904 -5.6,-0.904c-4.534,0 -8.6,0.942 -12.2,2.825c-3.6,1.884 -6.65,4.407 -9.15,7.571c-2.5,3.164 -4.417,6.837 -5.75,11.018c-1.334,4.181 -2,8.569 -2,13.164c0,4.596 0.666,8.984 2,13.165c1.333,4.181 3.25,7.853 5.75,11.017c2.5,3.164 5.55,5.688 9.15,7.571c3.6,1.884 7.666,2.825 12.2,2.825c1.866,0 3.716,-0.188 5.55,-0.565c1.833,-0.376 3.633,-1.017 5.4,-1.921c1.766,-0.904 3.433,-2.128 5,-3.672c1.566,-1.544 3.016,-3.484 4.35,-5.82l5.9,4.746z"/>
  <path fill="#ffffff" id="svg_17" fill-rule="nonzero" stroke="#ffffff" stroke-width="6.25px" stroke-miterlimit="2" d="m1720.04,3253.62l-7.2,0l0,-34.465l-26.5,-45.539l9,0l21.1,37.742l21.1,-37.742l9,0l-26.5,45.539l0,34.465z"/>
  <path fill="#ffffff" id="svg_18" fill-rule="nonzero" stroke="#ffffff" stroke-width="6.25px" stroke-miterlimit="2" d="m1016.15,2917.92c-0.539,-1.322 -0.353,-2.83 0.493,-3.98c3.553,-4.765 10.308,-13.272 18.328,-20.241c12.54,-10.898 17.205,-12.756 22.755,-15.393c5.549,-2.636 11.547,-4.708 17.994,-6.215c6.447,-1.506 13.261,-2.26 20.442,-2.26c12.894,0 24.849,2.11 35.866,6.328c11.017,4.219 20.564,10.057 28.643,17.515c8.079,7.458 14.404,16.31 18.974,26.555c4.57,10.246 6.855,21.47 6.855,33.674c0,12.204 -2.285,23.429 -6.855,33.674c-4.57,10.246 -10.895,19.097 -18.974,26.555c-8.079,7.458 -17.626,13.297 -28.643,17.515c-11.017,4.219 -22.972,6.328 -35.866,6.328c-10.772,0 -26.665,-2.002 -42.885,-9.973c-13.425,-6.598 -25.566,-14.56 -34.077,-21.918c-4.224,-4.014 -4.481,-10.662 -0.581,-14.991c-0.053,-0.049 -0.053,-0.049 -0.053,-0.05c1.184,-1.313 2.86,-2.076 4.627,-2.107c1.768,-0.031 3.469,0.673 4.699,1.944c7.019,5.01 18.92,12.578 23.291,15.845c3.221,2.409 14.418,7.822 18.416,9.78c3.999,1.959 8.312,3.436 12.853,4.746c14.57,4.206 34.764,-0.075 43.578,-3.842c8.813,-3.766 16.28,-8.814 22.401,-15.142c6.12,-6.328 10.812,-13.673 14.077,-22.035c3.264,-8.362 4.896,-17.138 4.896,-26.329c0,-9.19 -1.632,-17.967 -4.896,-26.329c-3.265,-8.362 -7.957,-15.707 -14.077,-22.035c-6.121,-6.328 -13.588,-11.375 -22.401,-15.142c-8.814,-3.766 -18.77,-5.65 -29.868,-5.65c-4.57,0 -9.099,0.377 -13.587,1.13c-4.489,0.754 -8.895,2.034 -13.221,3.842c-4.325,1.808 -8.314,4.334 -12.24,7.345c-10.921,8.378 -18.966,16.648 -24.629,23.31c-2.146,2.607 -5.505,3.893 -8.843,3.387c-3.339,-0.507 -6.165,-2.732 -7.44,-5.859c-0.051,0.02 -0.051,0.019 -0.052,0.018z"/>
  <path id="svg_19" fill="none" stroke="#ffffff" stroke-width="25px" d="m596,2936.87l40,-54.978l60,151.11l59.906,-151.11l56.094,156.087l69,-156.087l40,72.015"/>
  <path id="svg_20" fill="none" stroke="#ffffff" stroke-width="25px" d="m1360.28,2994.6l31.165,52.144"/>
  <path id="svg_21" fill="none" stroke="#ffffff" stroke-width="25px" d="m1305.04,2994.22l53.332,0c9.467,3.553 33.2,-17.998 39.179,-32.76c7.062,-17.437 7.183,-26.994 4.651,-40.775c-4.256,-23.162 -31.475,-36.658 -45.515,-39.229c-18.667,-3.419 -36.16,-2.882 -51.647,0.519c0,0 25.56,-4.822 40.431,-1.895c19.814,3.9 46.115,10.265 54.985,43.273c10.973,40.833 -25.145,71.281 -41.959,70.87c-0.041,-0.001 -0.083,-0.001 -0.125,-0.001c-0.026,-0.002 -53.332,-0.002 -53.332,-0.002z"/>
  <path stroke="#ffffff" id="svg_24" fill="#ffffff" d="m554.25,795.611l-13.764,0.001l0.041,1417.32l13.765,0l-0.042,-1417.32l0,-0.001z"/>
  <path id="svg_25" fill="none" stroke="#ffffff" stroke-width="12.5px" d="m1816.12,795.612l147.333,0l0,1417.32l-147.333,0l147.333,0l0,-1417.32l-147.333,0z"/>
  <path id="svg_26" fill="none" stroke="#ffffff" stroke-width="12.5px" d="m547.389,795.611l134.871,0l-134.871,0z"/>
  <path id="svg_27" fill="none" stroke="#ffffff" stroke-width="12.5px" d="m546.797,2211.73l134.87,0l-134.87,0z"/>
  <path id="svg_28" fill="none" stroke="#ffffff" stroke-width="27.08px" d="m1553.15,2895c21.439,-2.661 46.226,-5.529 85.845,-1.299"/>
  <path id="svg_29" fill="none" stroke="#ffffff" stroke-width="25px" d="m1606.3,2964.57l-55.104,0"/>
  <path id="svg_30" fill="none" stroke="#ffffff" stroke-width="27.08px" d="m1639,3041.34c0,0 -18.332,1.473 -31.035,2.494c-7.913,0.636 -15.863,0.649 -23.778,0.041c-13.295,-1.022 -32.987,-2.535 -32.987,-2.535"/>
  <path id="svg_31" fill="none" stroke="#ffffff" stroke-width="22.92px" d="m1930.46,2861.06l-105.213,82.025l102.777,103.661"/>
  <path id="svg_32" fill="none" stroke="#ffffff" stroke-width="29.17px" d="m1787.28,2888.65l0.532,134.972"/>
 </g>
</svg>