<?xml version="1.0" standalone="no"?>
<!DOCTYPE svg PUBLIC "-//W3C//DTD SVG 20010904//EN"
 "http://www.w3.org/TR/2001/REC-SVG-20010904/DTD/svg10.dtd">
<svg version="1.0" xmlns="http://www.w3.org/2000/svg"
 width="729.000000pt" height="263.000000pt" viewBox="0 0 729.000000 263.000000"
 preserveAspectRatio="xMidYMid meet">
<metadata>
Created by potrace 1.16, written by Peter Selinger 2001-2019
</metadata>
<g transform="translate(0.000000,263.000000) scale(0.100000,-0.100000)"
fill="#FFFFFF" stroke="none">
<path d="M6652 2123 c-154 -120 -285 -229 -291 -242 -7 -13 -9 -33 -5 -45 3
-11 130 -146 282 -298 244 -245 281 -278 308 -278 38 0 64 27 64 65 0 24 -41
69 -247 276 -136 137 -245 250 -242 252 2 2 115 90 252 196 235 183 247 195
247 226 0 19 -7 41 -16 49 -37 38 -61 24 -352 -201z"/>
<path d="M2498 2227 c-83 -29 -165 -84 -224 -151 -59 -67 -65 -93 -30 -123 15
-13 36 -23 47 -23 11 0 56 34 101 76 48 45 104 87 136 102 48 22 64 24 145 20
75 -4 102 -9 144 -31 108 -56 172 -154 181 -278 14 -196 -130 -348 -333 -352
-84 -1 -141 22 -283 115 -82 54 -96 60 -120 52 -31 -11 -48 -50 -38 -87 11
-47 173 -148 291 -182 83 -25 221 -22 306 4 145 46 259 156 300 293 32 105 25
228 -20 325 -55 119 -161 205 -300 247 -83 24 -220 21 -303 -7z"/>
<path d="M3723 2239 c-35 -10 -63 -42 -63 -72 0 -10 11 -29 25 -43 24 -24 30
-25 88 -19 242 29 388 -55 390 -224 0 -63 -19 -108 -67 -159 -54 -58 -70 -62
-240 -62 l-155 0 -20 -26 c-27 -35 -26 -59 4 -89 23 -24 29 -25 158 -25 l134
0 73 -122 c80 -135 91 -148 131 -148 30 0 69 40 69 69 0 9 -29 66 -64 126
l-64 109 39 31 c172 136 199 426 52 555 -50 45 -112 78 -178 94 -66 18 -258
20 -312 5z"/>
<path d="M228 2213 c-14 -16 -69 -88 -122 -162 -74 -103 -96 -141 -96 -166 0
-42 28 -67 72 -63 29 3 42 15 107 101 40 54 74 97 76 95 1 -2 62 -153 135
-336 89 -225 139 -337 153 -347 26 -18 56 -19 79 -1 10 7 73 153 141 325 l124
312 112 -313 c62 -172 119 -323 127 -335 21 -32 88 -32 108 0 8 12 80 172 161
355 81 183 148 332 150 330 1 -2 30 -55 65 -118 34 -63 72 -125 83 -137 40
-45 117 -16 117 43 0 30 -201 401 -232 427 -11 9 -30 17 -43 17 -13 0 -32 -8
-43 -17 -11 -10 -84 -164 -163 -342 -78 -179 -144 -321 -146 -315 -2 5 -56
155 -121 334 -108 300 -119 325 -144 334 -18 6 -38 6 -55 0 -25 -8 -40 -39
-154 -328 -69 -175 -129 -314 -132 -309 -4 6 -61 147 -127 314 -66 167 -128
310 -137 317 -28 20 -67 14 -95 -15z"/>
<path d="M6189 2209 c-47 -17 -49 -35 -49 -420 0 -378 3 -407 45 -423 34 -13
72 -6 93 17 22 23 22 27 22 405 0 369 -1 383 -20 402 -11 11 -24 20 -29 20 -5
0 -15 2 -23 4 -7 3 -25 0 -39 -5z"/>
<path d="M5120 2188 c-98 -6 -130 -12 -150 -26 -34 -26 -39 -83 -10 -112 21
-21 27 -21 128 -13 59 4 175 6 258 5 149 -4 152 -4 168 19 22 31 20 75 -3 98
-31 31 -177 42 -391 29z"/>
<path d="M4956 1795 c-37 -37 -23 -103 24 -116 32 -9 298 -9 330 0 47 13 61
79 24 116 -23 22 -355 22 -378 0z"/>
<path d="M4948 1398 c-27 -27 -24 -82 7 -106 32 -25 216 -38 402 -27 114 6
128 9 150 31 26 26 30 70 9 99 -13 18 -30 19 -282 20 -245 1 -270 -1 -286 -17z"/>
<path d="M1866 690 c-64 -20 -103 -88 -91 -159 8 -47 44 -83 105 -107 81 -31
100 -64 60 -104 -27 -27 -56 -25 -86 5 -31 31 -45 31 -72 2 l-22 -24 21 -28
c43 -54 122 -69 187 -36 46 24 72 67 72 121 0 68 -22 96 -105 136 -68 32 -75
38 -75 65 0 40 37 64 74 48 14 -7 26 -16 26 -21 0 -15 36 -8 58 12 12 12 22
24 22 29 0 17 -50 53 -87 62 -45 10 -49 10 -87 -1z"/>
<path d="M5140 689 c-90 -27 -150 -116 -150 -223 0 -83 18 -134 65 -182 61
-63 143 -80 220 -45 77 35 100 95 43 115 -22 8 -30 5 -50 -18 -31 -36 -83 -43
-125 -17 -44 27 -63 60 -70 118 -15 130 104 227 185 150 34 -33 42 -33 71 -3
22 23 22 25 6 49 -32 50 -126 76 -195 56z"/>
<path d="M1135 679 c-3 -8 -4 -111 -3 -229 l3 -215 35 0 35 0 3 93 3 92 37 1
c92 1 152 53 152 133 0 46 -28 99 -61 117 -13 6 -62 14 -111 17 -70 4 -89 2
-93 -9z"/>
<path d="M2407 684 c-4 -4 -7 -22 -7 -41 l0 -33 95 0 c52 0 95 -2 95 -5 0 -4
-43 -74 -96 -157 -76 -121 -94 -157 -92 -182 l3 -31 148 -3 147 -3 0 40 0 40
-95 3 -96 3 96 153 c77 124 96 160 93 185 l-3 32 -141 3 c-77 1 -143 -1 -147
-4z"/>
<path d="M3092 678 c-14 -14 -17 -414 -4 -436 7 -9 41 -12 138 -10 l129 3 3
38 3 37 -100 0 -101 0 0 60 0 60 91 0 90 0 -3 38 -3 37 -87 3 -88 3 0 49 0 50
96 0 95 0 -3 38 -3 37 -120 3 c-85 2 -124 -1 -133 -10z"/>
<path d="M3755 678 c-3 -7 -4 -110 -3 -228 l3 -215 35 0 35 0 5 145 5 145 90
-148 90 -148 40 3 40 3 3 222 2 223 -25 6 c-53 13 -55 7 -55 -153 l0 -147 -93
149 c-91 146 -95 150 -130 153 -24 2 -39 -1 -42 -10z"/>
<path d="M4521 677 c-8 -11 -11 -75 -9 -228 l3 -214 38 -3 37 -3 -2 228 -3
228 -26 3 c-14 2 -31 -3 -38 -11z"/>
<path d="M5684 675 c-3 -8 26 -70 65 -138 l71 -124 0 -92 0 -91 34 0 c42 0 46
9 46 116 l0 85 65 111 c36 61 65 118 63 127 -2 10 -16 17 -40 19 -36 3 -37 3
-83 -83 -53 -97 -44 -99 -109 18 -35 63 -39 67 -72 67 -21 0 -37 -6 -40 -15z"/>
</g>
</svg>
